<svg width="105" height="49" viewBox="0 0 105 49" fill="none" xmlns="http://www.w3.org/2000/svg">
<path d="M9.73145 1.39227C4.02295 1.39227 0.344727 5.2287 0.344727 11.4118C0.344727 17.6081 3.9834 21.4445 9.73145 21.4445C15.4531 21.4445 19.0918 17.6081 19.0918 11.4118C19.0918 5.2287 15.4531 1.39227 9.73145 1.39227ZM9.73145 5.40009C12.3945 5.40009 14.1743 7.74677 14.1743 11.4118C14.1743 15.09 12.4077 17.4367 9.73145 17.4367C7.02881 17.4367 5.27539 15.09 5.27539 11.4118C5.27539 7.74677 7.05518 5.40009 9.73145 5.40009ZM20.8877 20.9304H25.5415V0.75946H20.8877V20.9304ZM29.9346 26.2961C34.1401 26.2961 36.2759 24.8195 37.5283 20.904L42.248 6.25702H37.3174L34.6938 17.0148H34.4434L31.8198 6.25702H26.665L31.6748 21.049L31.6089 21.4577C31.4507 22.3278 30.5674 22.7497 29.0513 22.7497C28.9854 22.7497 28.2998 22.7497 28.2339 22.7365V26.2829C28.2998 26.2961 29.8687 26.2961 29.9346 26.2961ZM43.2266 20.9304H47.8804V12.2028C47.8804 10.7263 48.7637 9.7243 50.0688 9.7243C51.4136 9.7243 52.165 10.5285 52.165 12.0051V20.9304H56.6211V12.1237C56.6211 10.6867 57.4517 9.7243 58.7832 9.7243C60.1938 9.7243 60.9058 10.5021 60.9058 12.0842V20.9304H65.5596V10.8976C65.5596 7.89178 63.6611 5.91425 60.7739 5.91425C58.7041 5.91425 56.9902 7.00848 56.3838 8.6828H56.1333C55.5796 6.9162 54.1558 5.91425 52.0596 5.91425C50.1348 5.91425 48.5791 6.98212 48.0122 8.6828H47.7617V6.25702H43.2266V20.9304ZM76.729 6.0329C74.6987 6.0329 73.0771 7.00848 72.3521 8.64325H72.1016V6.25702H67.5664V25.3996H72.2202V18.676H72.4707C73.1562 20.2316 74.7119 21.1545 76.8345 21.1545C80.4863 21.1545 82.6353 18.3727 82.6353 13.5871C82.6353 8.78827 80.4336 6.0329 76.729 6.0329ZM75.0283 17.4894C73.2617 17.4894 72.1938 16.0392 72.1938 13.6003C72.1938 11.1745 73.2749 9.69794 75.0283 9.69794C76.7949 9.69794 77.8496 11.1745 77.8496 13.5871C77.8496 16.0261 76.8081 17.4894 75.0283 17.4894ZM84.0488 20.9304H88.7158V6.25702H84.0488V20.9304ZM86.3823 4.55634C88.0303 4.55634 89.019 3.72577 89.019 2.48651C89.019 1.23407 88.0303 0.403503 86.3823 0.403503C84.7476 0.403503 83.7588 1.23407 83.7588 2.48651C83.7588 3.72577 84.7476 4.55634 86.3823 4.55634ZM104.328 11.6887C104.038 8.08954 101.625 5.91425 97.5781 5.91425C92.7397 5.91425 90.1558 8.59052 90.1558 13.5739C90.1558 18.5837 92.7397 21.2731 97.5781 21.2731C101.56 21.2731 104.051 19.111 104.328 15.6042H100.043C99.8325 16.9753 98.9756 17.6872 97.5781 17.6872C95.772 17.6872 94.8359 16.3161 94.8359 13.5739C94.8359 10.8581 95.7588 9.50018 97.5781 9.50018C99.002 9.50018 99.8457 10.3176 100.043 11.6887H104.328ZM6.07959 47.9304V42.5515L7.75391 40.4289L12.5527 47.9304H18.2349L11.2739 37.3044L17.8525 28.9064H12.6582L6.33008 37.0803H6.07959V28.9064H1.24121V47.9304H6.07959ZM24.1309 44.8981C22.9575 44.8981 22.1797 44.3181 22.1797 43.382C22.1797 42.4987 22.9048 41.9582 24.2891 41.8527L26.7544 41.6945V42.6569C26.7544 43.9225 25.6074 44.8981 24.1309 44.8981ZM22.4302 48.1545C24.2891 48.1545 25.8975 47.3635 26.5566 46.111H26.8071V47.9304H31.3423V37.924C31.3423 34.7599 29.0352 32.9142 24.9878 32.9142C21.0195 32.9142 18.4224 34.6808 18.2114 37.5285H22.4038C22.707 36.7507 23.498 36.342 24.7241 36.342C26.0161 36.342 26.7544 36.9352 26.7544 37.924V39.071L23.5508 39.2556C19.7671 39.4797 17.6841 41.0353 17.6841 43.7116C17.6841 46.4011 19.6089 48.1545 22.4302 48.1545ZM33.3887 47.9304H38.0425V40.1652C38.0425 38.1218 39.4004 36.9616 41.4175 36.9616C42.0107 36.9616 43.0259 37.0803 43.3818 37.2253V33.257C43.0259 33.112 42.314 33.0329 41.7339 33.0329C39.9541 33.0329 38.5303 34.1931 38.1743 35.6696H37.9238V33.257H33.3887V47.9304ZM49.6338 44.8981C48.4604 44.8981 47.6826 44.3181 47.6826 43.382C47.6826 42.4987 48.4077 41.9582 49.792 41.8527L52.2573 41.6945V42.6569C52.2573 43.9225 51.1104 44.8981 49.6338 44.8981ZM47.9331 48.1545C49.792 48.1545 51.4004 47.3635 52.0596 46.111H52.3101V47.9304H56.8452V37.924C56.8452 34.7599 54.5381 32.9142 50.4907 32.9142C46.5225 32.9142 43.9253 34.6808 43.7144 37.5285H47.9067C48.21 36.7507 49.001 36.342 50.2271 36.342C51.519 36.342 52.2573 36.9352 52.2573 37.924V39.071L49.0537 39.2556C45.27 39.4797 43.187 41.0353 43.187 43.7116C43.187 46.4011 45.1118 48.1545 47.9331 48.1545ZM60.0518 29.9348V33.4548H57.7842V36.9221H60.0518V43.9094C60.0518 46.7834 61.5679 47.9567 65.4307 47.9567C66.314 47.9567 67.1577 47.8776 67.6587 47.7722V44.4499C67.3159 44.4894 67.0259 44.5158 66.4854 44.5158C65.2725 44.5158 64.7056 43.9753 64.7056 42.8679V36.9221H67.6982V33.4548H64.7056V29.9348H60.0518ZM75.7827 36.2233C77.3384 36.2233 78.314 37.2385 78.3931 38.9523H73.0669C73.1855 37.2912 74.2534 36.2233 75.7827 36.2233ZM78.5645 43.6061C78.248 44.4631 77.312 44.9641 75.9541 44.9641C74.1743 44.9641 73.0801 43.7775 73.0405 41.8659V41.6286H82.915V40.3366C82.915 35.6564 80.2783 32.9142 75.7563 32.9142C71.208 32.9142 68.4526 35.8542 68.4526 40.6926C68.4526 45.5046 71.1421 48.2731 75.8223 48.2731C79.6191 48.2731 82.3086 46.467 82.8228 43.6061H78.5645Z" fill="black"/>
</svg>
