<svg width="24" height="24" viewBox="0 0 24 24" fill="none" xmlns="http://www.w3.org/2000/svg">
<path d="M10.1983 12.4355L10.5596 8.89062H14.2022V9.72559H11.3262L11.1114 11.6641C11.4597 11.459 11.8552 11.3564 12.2979 11.3564C12.9457 11.3564 13.46 11.5713 13.8409 12.001C14.2217 12.4274 14.4121 13.0052 14.4121 13.7344C14.4121 14.4668 14.2136 15.0446 13.8164 15.4678C13.4226 15.8877 12.8708 16.0977 12.1612 16.0977C11.5329 16.0977 11.0202 15.9235 10.6231 15.5752C10.2259 15.2269 9.9997 14.7451 9.94437 14.1299H10.7989C10.8542 14.5368 10.9991 14.8444 11.2334 15.0527C11.4678 15.2578 11.777 15.3604 12.1612 15.3604C12.5811 15.3604 12.9099 15.2171 13.1475 14.9307C13.3884 14.6442 13.5088 14.2487 13.5088 13.7441C13.5088 13.2689 13.3786 12.888 13.1182 12.6016C12.861 12.3118 12.5176 12.167 12.0879 12.167C11.694 12.167 11.3848 12.2533 11.1602 12.4258L10.9209 12.6211L10.1983 12.4355Z" fill="black"/>
<path d="M12.9564 21.9542C12.4298 22.0048 12 21.5712 12 21.0422C12 20.5132 12.4303 20.0903 12.9556 20.0278C14.3044 19.8672 15.5966 19.3686 16.709 18.5714C18.0821 17.5875 19.1125 16.1982 19.6554 14.5987C20.1984 12.9991 20.2267 11.2697 19.7364 9.65321C19.246 8.03676 18.2616 6.6145 16.9215 5.58619C15.5814 4.55788 13.9528 3.97516 12.2645 3.9199C10.5763 3.86463 8.91307 4.33958 7.50856 5.27804C6.10405 6.2165 5.02878 7.57134 4.43376 9.15226C4.0891 10.068 3.9156 11.033 3.91559 12H6.00006L3.00003 15L0 12H2.00003C2.00004 10.8038 2.21464 9.61023 2.64097 8.4775C3.37697 6.52199 4.70703 4.84613 6.44433 3.68531C8.18163 2.52448 10.2389 1.93699 12.3272 2.00536C14.4155 2.07372 16.43 2.7945 18.0876 4.06647C19.7453 5.33843 20.9629 7.09769 21.5694 9.09715C22.176 11.0966 22.141 13.2358 21.4693 15.2144C20.7977 17.1929 19.5232 18.9114 17.8248 20.1285C16.3868 21.1589 14.7061 21.7861 12.9564 21.9542Z" fill="black"/>
</svg>
