<svg width="24" height="24" viewBox="0 0 24 24" fill="none" xmlns="http://www.w3.org/2000/svg">
<path d="M10.1982 12.4355L10.5596 8.89062H14.2021V9.72559H11.3262L11.1113 11.6641C11.4596 11.459 11.8551 11.3564 12.2979 11.3564C12.9456 11.3564 13.46 11.5713 13.8408 12.001C14.2217 12.4274 14.4121 13.0052 14.4121 13.7344C14.4121 14.4668 14.2135 15.0446 13.8164 15.4678C13.4225 15.8877 12.8708 16.0977 12.1611 16.0977C11.5329 16.0977 11.0202 15.9235 10.623 15.5752C10.2259 15.2269 9.99967 14.7451 9.94434 14.1299H10.7988C10.8542 14.5368 10.999 14.8444 11.2334 15.0527C11.4678 15.2578 11.777 15.3604 12.1611 15.3604C12.5811 15.3604 12.9098 15.2171 13.1475 14.9307C13.3883 14.6442 13.5088 14.2487 13.5088 13.7441C13.5088 13.2689 13.3786 12.888 13.1182 12.6016C12.861 12.3118 12.5176 12.167 12.0879 12.167C11.694 12.167 11.3848 12.2533 11.1602 12.4258L10.9209 12.6211L10.1982 12.4355Z" fill="black"/>
<path d="M12 0L9 3.00003L12 6.00006V3.91559C12.967 3.9156 13.932 4.0891 14.8477 4.43376C16.4287 5.02878 17.7835 6.10405 18.722 7.50856C19.6604 8.91307 20.1354 10.5763 20.0801 12.2645C20.0248 13.9528 19.4421 15.5814 18.4138 16.9215C17.3855 18.2616 15.9632 19.246 14.3468 19.7364C12.7303 20.2267 11.0009 20.1984 9.40135 19.6554C7.8018 19.1125 6.41251 18.0821 5.4286 16.709C4.63141 15.5966 4.13278 14.3044 3.97223 12.9556C3.90971 12.4303 3.48676 12 2.95779 12C2.42882 12 1.99525 12.4298 2.04583 12.9564C2.21392 14.7061 2.84109 16.3868 3.87154 17.8248C5.08859 19.5232 6.80706 20.7977 8.78561 21.4693C10.7642 22.141 12.9034 22.176 14.9029 21.5694C16.9023 20.9629 18.6616 19.7453 19.9335 18.0876C21.2055 16.43 21.9263 14.4155 21.9946 12.3272C22.063 10.2389 21.4755 8.18163 20.3147 6.44433C19.1539 4.70703 17.478 3.37697 15.5225 2.64097C14.3898 2.21464 13.1962 2.00004 12 2.00003V0Z" fill="black"/>
</svg>
