<svg width="24" height="24" viewBox="0 0 24 24" fill="none" xmlns="http://www.w3.org/2000/svg">
<path d="M10.1982 12.4355L10.5596 8.89062H14.2021V9.72559H11.3262L11.1113 11.6641C11.4596 11.459 11.8551 11.3564 12.2979 11.3564C12.9456 11.3564 13.46 11.5713 13.8408 12.001C14.2217 12.4274 14.4121 13.0052 14.4121 13.7344C14.4121 14.4668 14.2135 15.0446 13.8164 15.4678C13.4225 15.8877 12.8708 16.0977 12.1611 16.0977C11.5329 16.0977 11.0202 15.9235 10.623 15.5752C10.2259 15.2269 9.99967 14.7451 9.94434 14.1299H10.7988C10.8542 14.5368 10.999 14.8444 11.2334 15.0527C11.4678 15.2578 11.777 15.3604 12.1611 15.3604C12.5811 15.3604 12.9098 15.2171 13.1475 14.9307C13.3883 14.6442 13.5088 14.2487 13.5088 13.7441C13.5088 13.2689 13.3786 12.888 13.1182 12.6016C12.861 12.3118 12.5176 12.167 12.0879 12.167C11.694 12.167 11.3848 12.2533 11.1602 12.4258L10.9209 12.6211L10.1982 12.4355Z" fill="black"/>
<path d="M11.0437 21.9542C11.5702 22.0048 12 21.5712 12 21.0422C12 20.5132 11.5697 20.0903 11.0444 20.0278C9.69562 19.8672 8.40347 19.3686 7.291 18.5714C5.91794 17.5875 4.88758 16.1982 4.34461 14.5987C3.80163 12.9991 3.77333 11.2697 4.26368 9.65321C4.75403 8.03676 5.73838 6.6145 7.07851 5.58619C8.41863 4.55788 10.0472 3.97516 11.7355 3.9199C13.4238 3.86463 15.087 4.33958 16.4915 5.27804C17.896 6.2165 18.9713 7.57134 19.5663 9.15226C19.9109 10.068 20.0844 11.033 20.0844 12H18L21 15L24 12H22C22 10.8038 21.7854 9.61023 21.3591 8.4775C20.6231 6.52199 19.293 4.84613 17.5557 3.68531C15.8184 2.52448 13.7611 1.93699 11.6728 2.00536C9.5845 2.07372 7.57005 2.7945 5.91239 4.06647C4.25473 5.33843 3.03713 7.09769 2.4306 9.09715C1.82407 11.0966 1.85907 13.2358 2.5307 15.2144C3.20233 17.1929 4.47683 18.9114 6.17522 20.1285C7.61321 21.1589 9.2939 21.7861 11.0437 21.9542Z" fill="black"/>
</svg>
