<svg width="24" height="24" viewBox="0 0 24 24" fill="none" xmlns="http://www.w3.org/2000/svg">
<path d="M10.1982 12.4355L10.5596 8.89062H14.2021V9.72559H11.3262L11.1113 11.6641C11.4596 11.459 11.8551 11.3564 12.2979 11.3564C12.9456 11.3564 13.46 11.5713 13.8408 12.001C14.2217 12.4274 14.4121 13.0052 14.4121 13.7344C14.4121 14.4668 14.2135 15.0446 13.8164 15.4678C13.4225 15.8877 12.8708 16.0977 12.1611 16.0977C11.5329 16.0977 11.0202 15.9235 10.623 15.5752C10.2259 15.2269 9.99967 14.7451 9.94434 14.1299H10.7988C10.8542 14.5368 10.999 14.8444 11.2334 15.0527C11.4678 15.2578 11.777 15.3604 12.1611 15.3604C12.5811 15.3604 12.9098 15.2171 13.1475 14.9307C13.3883 14.6442 13.5088 14.2487 13.5088 13.7441C13.5088 13.2689 13.3786 12.888 13.1182 12.6016C12.861 12.3118 12.5176 12.167 12.0879 12.167C11.694 12.167 11.3848 12.2533 11.1602 12.4258L10.9209 12.6211L10.1982 12.4355Z" fill="black"/>
<path d="M12 0L15.0001 3.00003L12 6.00006V3.91559C11.033 3.9156 10.068 4.08909 9.15226 4.43376C7.57134 5.02878 6.2165 6.10405 5.27804 7.50856C4.33958 8.91307 3.86463 10.5763 3.9199 12.2645C3.97516 13.9528 4.55788 15.5814 5.58619 16.9215C6.6145 18.2616 8.03676 19.246 9.65321 19.7364C11.2697 20.2267 12.9991 20.1984 14.5987 19.6554C16.1982 19.1125 17.5875 18.0821 18.5714 16.709C19.3686 15.5966 19.8672 14.3044 20.0278 12.9556C20.0903 12.4303 20.5132 12 21.0422 12C21.5712 12 22.0048 12.4298 21.9542 12.9564C21.7861 14.7061 21.1589 16.3868 20.1285 17.8248C18.9114 19.5232 17.1929 20.7977 15.2144 21.4693C13.2358 22.141 11.0966 22.176 9.09715 21.5694C7.09769 20.9629 5.33844 19.7453 4.06647 18.0876C2.7945 16.43 2.07372 14.4155 2.00536 12.3272C1.93699 10.2389 2.52448 8.18163 3.68531 6.44433C4.84613 4.70703 6.52199 3.37697 8.4775 2.64097C9.61025 2.21463 10.8039 2.00003 12 2.00003V0Z" fill="black"/>
</svg>
