<svg width="84" height="15" viewBox="0 0 84 15" fill="none" xmlns="http://www.w3.org/2000/svg">
<path opacity="0.5" d="M0.365623 0.656067V11.9295H1.77187V7.90607H4.60781C6.725 7.90607 8.23281 6.41388 8.23281 4.3045C8.23281 2.15607 6.75625 0.656067 4.62344 0.656067H0.365623ZM1.77187 1.90607H4.25625C5.88906 1.90607 6.7875 2.75763 6.7875 4.3045C6.7875 5.79669 5.85781 6.65607 4.25625 6.65607H1.77187V1.90607ZM13.2922 10.867C11.6984 10.867 10.8 9.71075 10.8 7.71857C10.8 5.71857 11.6984 4.57013 13.2922 4.57013C14.8859 4.57013 15.7844 5.71857 15.7844 7.71857C15.7844 9.71075 14.8859 10.867 13.2922 10.867ZM13.2922 12.0779C15.6906 12.0779 17.175 10.4217 17.175 7.71857C17.175 5.00763 15.6906 3.35919 13.2922 3.35919C10.8937 3.35919 9.40937 5.00763 9.40937 7.71857C9.40937 10.4217 10.8937 12.0779 13.2922 12.0779ZM29.2656 3.50763H27.9141L26.2578 10.242H26.1328L24.25 3.50763H22.9609L21.0781 10.242H20.9531L19.2969 3.50763H17.9375L20.2969 11.9295H21.6562L23.5312 5.41388H23.6562L25.5391 11.9295H26.9062L29.2656 3.50763ZM33.8094 4.54669C35.1453 4.54669 36.0359 5.53107 36.0672 7.02325H31.4266C31.5281 5.53107 32.4656 4.54669 33.8094 4.54669ZM36.0281 9.74982C35.6766 10.492 34.9422 10.8904 33.8562 10.8904C32.4266 10.8904 31.4969 9.83575 31.4266 8.17169V8.10919H37.4812V7.59357C37.4812 4.97638 36.0984 3.35919 33.825 3.35919C31.5125 3.35919 30.0281 5.07794 30.0281 7.72638C30.0281 10.3904 31.4891 12.0779 33.825 12.0779C35.6687 12.0779 36.9656 11.1951 37.3719 9.74982H36.0281ZM39.2906 11.9295H40.6344V6.71075C40.6344 5.52325 41.5641 4.66388 42.8453 4.66388C43.1109 4.66388 43.5953 4.71075 43.7047 4.742V3.39825C43.5328 3.37482 43.2516 3.35919 43.0328 3.35919C41.9156 3.35919 40.9469 3.93732 40.6969 4.75763H40.5719V3.50763H39.2906V11.9295ZM48.2094 4.54669C49.5453 4.54669 50.4359 5.53107 50.4672 7.02325H45.8266C45.9281 5.53107 46.8656 4.54669 48.2094 4.54669ZM50.4281 9.74982C50.0766 10.492 49.3422 10.8904 48.2562 10.8904C46.8266 10.8904 45.8969 9.83575 45.8266 8.17169V8.10919H51.8812V7.59357C51.8812 4.97638 50.4984 3.35919 48.225 3.35919C45.9125 3.35919 44.4281 5.07794 44.4281 7.72638C44.4281 10.3904 45.8891 12.0779 48.225 12.0779C50.0687 12.0779 51.3656 11.1951 51.7719 9.74982H50.4281ZM56.8078 12.0779C57.9719 12.0779 58.9719 11.5233 59.5031 10.5858H59.6281V11.9295H60.9094V0.163879H59.5656V4.83575H59.4484C58.9719 3.91388 57.9797 3.35919 56.8078 3.35919C54.6672 3.35919 53.2688 5.07794 53.2688 7.71857C53.2688 10.367 54.6516 12.0779 56.8078 12.0779ZM57.1203 4.57013C58.6438 4.57013 59.5969 5.78888 59.5969 7.71857C59.5969 9.66388 58.6516 10.867 57.1203 10.867C55.5813 10.867 54.6594 9.68732 54.6594 7.71857C54.6594 5.75763 55.5891 4.57013 57.1203 4.57013ZM71.6219 12.0779C73.7547 12.0779 75.1531 10.3514 75.1531 7.71857C75.1531 5.07013 73.7625 3.35919 71.6219 3.35919C70.4656 3.35919 69.4422 3.9295 68.9812 4.83575H68.8562V0.163879H67.5125V11.9295H68.7937V10.5858H68.9187C69.45 11.5233 70.45 12.0779 71.6219 12.0779ZM71.3094 4.57013C72.8484 4.57013 73.7625 5.74982 73.7625 7.71857C73.7625 9.68732 72.8484 10.867 71.3094 10.867C69.7781 10.867 68.825 9.66388 68.825 7.71857C68.825 5.77325 69.7781 4.57013 71.3094 4.57013ZM77.3688 14.9842C78.8609 14.9842 79.5328 14.3983 80.2516 12.4451L83.5406 3.50763H82.1109L79.8063 10.4373H79.6813L77.3688 3.50763H75.9156L79.0328 11.9373L78.8766 12.4373C78.525 13.4529 78.1031 13.8279 77.3297 13.8279C77.1422 13.8279 76.9313 13.8201 76.7672 13.7889V14.9373C76.9547 14.9686 77.1891 14.9842 77.3688 14.9842Z" fill="#0E0E0E"/>
</svg>
